<?xml version="1.0" encoding="UTF-8"?>
<svg viewBox="0 0 49 48" version="1.1" xmlns="http://www.w3.org/2000/svg" xmlns:xlink="http://www.w3.org/1999/xlink">
    <!-- Generator: Sketch 54.1 (76490) - https://sketchapp.com -->
    <title>Logos/Globe (color)</title>
    <desc>Created with Sketch.</desc>
    <defs>
        <path d="M0,23.68 C0,25.931 0.323,28.107 0.913,30.171 C0.948,30.311 0.981,30.449 1.022,30.587 C1.031,30.614 1.042,30.637 1.053,30.664 C4.04,40.323 13.054,47.36 23.681,47.36 C28.596,47.36 33.167,45.854 36.956,43.28 C36.994,43.259 37.032,43.239 37.067,43.215 C37.292,43.062 37.51,42.901 37.721,42.733 C42.079,39.513 45.296,34.839 46.651,29.431 C46.727,29.182 46.793,28.929 46.849,28.673 C46.861,28.613 46.865,28.553 46.869,28.493 C47.19,26.939 47.361,25.327 47.361,23.68 C47.361,20.484 46.735,17.382 45.5,14.463 C45.263,13.903 44.617,13.641 44.057,13.878 C43.497,14.114 43.234,14.761 43.471,15.321 C44.591,17.967 45.158,20.78 45.158,23.68 C45.158,25.457 44.937,27.184 44.528,28.836 C44.203,29.879 43.63,30.844 42.841,31.719 C42.86,31.345 42.874,30.967 42.874,30.582 C42.883,26.357 41.714,21.895 39.547,17.7 C41.136,16.335 42.148,14.65 42.497,12.764 C42.608,12.166 42.212,11.592 41.614,11.482 C41.017,11.369 40.441,11.766 40.331,12.365 C40.101,13.612 39.454,14.754 38.44,15.728 C38.125,15.206 37.798,14.691 37.451,14.182 C35.518,11.348 33.221,8.896 30.707,6.94 C34.025,7.158 37.092,7.962 39.563,9.342 C39.95,9.563 40.465,9.556 40.826,9.254 C41.294,8.866 41.356,8.169 40.966,7.701 C37.418,2.737 31.281,0 23.681,0 C10.624,0 0,10.623 0,23.68 M24.234,3.229 C23.238,2.847 22.252,2.552 21.282,2.34 C22.061,2.253 22.849,2.204 23.65,2.203 C24.025,2.208 24.485,2.659 24.968,3.531 C24.724,3.426 24.479,3.323 24.234,3.229 M26.621,2.364 C27.515,2.463 28.467,2.617 29.447,2.846 C28.833,3.175 28.197,3.588 27.551,4.082 C27.263,3.432 26.953,2.858 26.621,2.364 M30.331,4.722 C31.087,4.233 31.782,3.897 32.364,3.758 C33.469,4.201 34.564,4.766 35.603,5.481 C33.937,5.066 32.165,4.812 30.331,4.722 M12.461,7.624 C12.706,6.482 13.392,5.46 14.456,4.616 C17.026,3.848 20.017,4.033 23.161,5.184 C21.838,5.414 20.516,5.719 19.21,6.113 C16.78,6.842 14.488,7.838 12.388,9.05 C12.34,8.568 12.363,8.09 12.461,7.624 M10.395,6.824 C10.364,6.936 10.332,7.048 10.308,7.164 C10.085,8.203 10.111,9.267 10.374,10.324 C8.003,11.958 5.942,13.892 4.302,16.064 C3.801,16.725 3.354,17.4 2.949,18.079 C4.168,13.569 6.824,9.645 10.395,6.824 M15.132,13.842 C14.221,12.99 13.529,12.1 13.063,11.207 C15.127,9.965 17.411,8.953 19.844,8.222 C21.291,7.787 22.756,7.464 24.216,7.241 C22.107,9.604 20.001,12.606 18.072,15.996 C16.97,15.359 15.98,14.637 15.132,13.842 M24.544,18.432 C22.95,18.092 21.435,17.603 20.04,16.99 C22.095,13.395 24.343,10.269 26.56,7.945 C27.253,10.67 27.834,14.335 28.079,18.879 C26.912,18.832 25.724,18.685 24.544,18.432 M28.911,8.341 C31.416,10.205 33.711,12.61 35.631,15.423 C35.995,15.957 36.338,16.499 36.665,17.046 C34.904,18.063 32.68,18.671 30.279,18.842 C30.075,15.041 29.625,11.384 28.911,8.341 M6.869,28.81 C4.998,27.08 3.711,25.25 3.056,23.432 C3.575,21.394 4.58,19.35 6.06,17.391 C7.463,15.533 9.208,13.86 11.21,12.422 C11.788,13.466 12.597,14.485 13.626,15.451 C14.605,16.368 15.747,17.199 17.012,17.926 C16.664,18.587 16.322,19.259 15.99,19.942 C14.036,23.946 12.44,28.242 11.503,32.141 C9.766,31.16 8.202,30.042 6.869,28.81 M21.153,35.721 C18.425,35.136 15.847,34.27 13.513,33.173 C14.279,29.725 15.706,25.546 17.969,20.908 C18.297,20.236 18.633,19.576 18.976,18.927 C20.558,19.637 22.278,20.201 24.083,20.586 C25.455,20.88 26.825,21.04 28.169,21.086 C28.193,21.912 28.205,22.764 28.205,23.642 C28.205,28.828 27.79,33.134 27.192,36.497 C25.221,36.412 23.193,36.156 21.153,35.721 M30.407,23.642 C30.407,22.782 30.395,21.918 30.37,21.057 C33.109,20.875 35.647,20.163 37.725,18.968 C39.647,22.774 40.68,26.788 40.671,30.577 C40.669,31.675 40.575,32.719 40.401,33.704 C39.411,34.311 38.273,34.836 36.991,35.268 C34.717,36.033 32.154,36.451 29.438,36.521 C30.092,32.605 30.407,28.06 30.407,23.642 M3.028,29.557 C2.84,28.841 2.722,28.112 2.674,27.371 C3.409,28.417 4.306,29.441 5.373,30.427 C6.984,31.916 8.897,33.248 11.029,34.39 C10.594,36.826 10.471,39.032 10.747,40.812 C7.072,38.032 4.323,34.099 3.028,29.557 M14.385,43.04 C14.32,42.987 14.25,42.937 14.172,42.899 C12.948,42.303 12.454,39.576 13.091,35.405 C15.441,36.461 18.002,37.298 20.692,37.873 C22.731,38.309 24.763,38.578 26.749,38.682 C25.775,42.916 24.526,45.138 23.7,45.138 C23.646,45.138 23.596,45.147 23.545,45.154 C20.267,45.132 17.161,44.378 14.385,43.04 M29.02,38.727 C32.131,38.689 35.082,38.234 37.693,37.356 C38.351,37.134 38.977,36.89 39.572,36.623 C38.846,38.399 37.777,39.878 36.388,40.98 C33.642,43.002 30.402,44.388 26.885,44.918 C27.766,43.397 28.476,41.25 29.02,38.727" id="path-1"></path>
        <radialGradient cx="95.7960304%" cy="21.6326014%" fx="95.7960304%" fy="21.6326014%" r="83.363598%" id="radialGradient-3">
            <stop stop-color="#FFFFFF" offset="0%"></stop>
            <stop stop-color="#EBF9FE" offset="6%"></stop>
            <stop stop-color="#B6E8FA" offset="18%"></stop>
            <stop stop-color="#60CDF5" offset="36%"></stop>
            <stop stop-color="#00AEEF" offset="54%"></stop>
            <stop stop-color="#002F54" offset="100%"></stop>
        </radialGradient>
    </defs>
    <g id="Logos/Globe-(color)" stroke="none" stroke-width="1" fill="none" fill-rule="evenodd">
        <g id="Logos/SVG/WBG/Horizontal/Black">
            <g id="Group-3" transform="translate(0.000000, 0.359400)">
                <g id="Fill-1-+-Rectangle-Mask">
                    <g id="Rectangle">
                        <mask id="mask-2" fill="white">
                            <use xlink:href="#path-1"></use>
                        </mask>
                        <use id="Mask" fill="#231F20" xlink:href="#path-1"></use>
                        <rect fill="url(#radialGradient-3)" mask="url(#mask-2)" x="0" y="-7.10542736e-15" width="47.5" height="47.5"></rect>
                    </g>
                </g>
            </g>
        </g>
    </g>
</svg>