<?xml version="1.0" encoding="UTF-8"?>
<svg viewBox="0 0 242 48" version="1.1" xmlns="http://www.w3.org/2000/svg" xmlns:xlink="http://www.w3.org/1999/xlink">
    <!-- Generator: Sketch 54.1 (76490) - https://sketchapp.com -->
    <title>Logos/Horizontal/World Bank Group (white)</title>
    <desc>Created with Sketch.</desc>
    <defs>
        <path d="M0,23.68 C0,25.931 0.323,28.107 0.913,30.171 C0.948,30.311 0.981,30.449 1.022,30.587 C1.031,30.614 1.042,30.637 1.053,30.664 C4.04,40.323 13.054,47.36 23.681,47.36 C28.596,47.36 33.167,45.854 36.956,43.28 C36.994,43.259 37.032,43.239 37.067,43.215 C37.292,43.062 37.51,42.901 37.721,42.733 C42.079,39.513 45.296,34.839 46.651,29.431 C46.727,29.182 46.793,28.929 46.849,28.673 C46.861,28.613 46.865,28.553 46.869,28.493 C47.19,26.939 47.361,25.327 47.361,23.68 C47.361,20.484 46.735,17.382 45.5,14.463 C45.263,13.903 44.617,13.641 44.057,13.878 C43.497,14.114 43.234,14.761 43.471,15.321 C44.591,17.967 45.158,20.78 45.158,23.68 C45.158,25.457 44.937,27.184 44.528,28.836 C44.203,29.879 43.63,30.844 42.841,31.719 C42.86,31.345 42.874,30.967 42.874,30.582 C42.883,26.357 41.714,21.895 39.547,17.7 C41.136,16.335 42.148,14.65 42.497,12.764 C42.608,12.166 42.212,11.592 41.614,11.482 C41.017,11.369 40.441,11.766 40.331,12.365 C40.101,13.612 39.454,14.754 38.44,15.728 C38.125,15.206 37.798,14.691 37.451,14.182 C35.518,11.348 33.221,8.896 30.707,6.94 C34.025,7.158 37.092,7.962 39.563,9.342 C39.95,9.563 40.465,9.556 40.826,9.254 C41.294,8.866 41.356,8.169 40.966,7.701 C37.418,2.737 31.281,0 23.681,0 C10.624,0 0,10.623 0,23.68 M24.234,3.229 C23.238,2.847 22.252,2.552 21.282,2.34 C22.061,2.253 22.849,2.204 23.65,2.203 C24.025,2.208 24.485,2.659 24.968,3.531 C24.724,3.426 24.479,3.323 24.234,3.229 M26.621,2.364 C27.515,2.463 28.467,2.617 29.447,2.846 C28.833,3.175 28.197,3.588 27.551,4.082 C27.263,3.432 26.953,2.858 26.621,2.364 M30.331,4.722 C31.087,4.233 31.782,3.897 32.364,3.758 C33.469,4.201 34.564,4.766 35.603,5.481 C33.937,5.066 32.165,4.812 30.331,4.722 M12.461,7.624 C12.706,6.482 13.392,5.46 14.456,4.616 C17.026,3.848 20.017,4.033 23.161,5.184 C21.838,5.414 20.516,5.719 19.21,6.113 C16.78,6.842 14.488,7.838 12.388,9.05 C12.34,8.568 12.363,8.09 12.461,7.624 M10.395,6.824 C10.364,6.936 10.332,7.048 10.308,7.164 C10.085,8.203 10.111,9.267 10.374,10.324 C8.003,11.958 5.942,13.892 4.302,16.064 C3.801,16.725 3.354,17.4 2.949,18.079 C4.168,13.569 6.824,9.645 10.395,6.824 M15.132,13.842 C14.221,12.99 13.529,12.1 13.063,11.207 C15.127,9.965 17.411,8.953 19.844,8.222 C21.291,7.787 22.756,7.464 24.216,7.241 C22.107,9.604 20.001,12.606 18.072,15.996 C16.97,15.359 15.98,14.637 15.132,13.842 M24.544,18.432 C22.95,18.092 21.435,17.603 20.04,16.99 C22.095,13.395 24.343,10.269 26.56,7.945 C27.253,10.67 27.834,14.335 28.079,18.879 C26.912,18.832 25.724,18.685 24.544,18.432 M28.911,8.341 C31.416,10.205 33.711,12.61 35.631,15.423 C35.995,15.957 36.338,16.499 36.665,17.046 C34.904,18.063 32.68,18.671 30.279,18.842 C30.075,15.041 29.625,11.384 28.911,8.341 M6.869,28.81 C4.998,27.08 3.711,25.25 3.056,23.432 C3.575,21.394 4.58,19.35 6.06,17.391 C7.463,15.533 9.208,13.86 11.21,12.422 C11.788,13.466 12.597,14.485 13.626,15.451 C14.605,16.368 15.747,17.199 17.012,17.926 C16.664,18.587 16.322,19.259 15.99,19.942 C14.036,23.946 12.44,28.242 11.503,32.141 C9.766,31.16 8.202,30.042 6.869,28.81 M21.153,35.721 C18.425,35.136 15.847,34.27 13.513,33.173 C14.279,29.725 15.706,25.546 17.969,20.908 C18.297,20.236 18.633,19.576 18.976,18.927 C20.558,19.637 22.278,20.201 24.083,20.586 C25.455,20.88 26.825,21.04 28.169,21.086 C28.193,21.912 28.205,22.764 28.205,23.642 C28.205,28.828 27.79,33.134 27.192,36.497 C25.221,36.412 23.193,36.156 21.153,35.721 M30.407,23.642 C30.407,22.782 30.395,21.918 30.37,21.057 C33.109,20.875 35.647,20.163 37.725,18.968 C39.647,22.774 40.68,26.788 40.671,30.577 C40.669,31.675 40.575,32.719 40.401,33.704 C39.411,34.311 38.273,34.836 36.991,35.268 C34.717,36.033 32.154,36.451 29.438,36.521 C30.092,32.605 30.407,28.06 30.407,23.642 M3.028,29.557 C2.84,28.841 2.722,28.112 2.674,27.371 C3.409,28.417 4.306,29.441 5.373,30.427 C6.984,31.916 8.897,33.248 11.029,34.39 C10.594,36.826 10.471,39.032 10.747,40.812 C7.072,38.032 4.323,34.099 3.028,29.557 M14.385,43.04 C14.32,42.987 14.25,42.937 14.172,42.899 C12.948,42.303 12.454,39.576 13.091,35.405 C15.441,36.461 18.002,37.298 20.692,37.873 C22.731,38.309 24.763,38.578 26.749,38.682 C25.775,42.916 24.526,45.138 23.7,45.138 C23.646,45.138 23.596,45.147 23.545,45.154 C20.267,45.132 17.161,44.378 14.385,43.04 M29.02,38.727 C32.131,38.689 35.082,38.234 37.693,37.356 C38.351,37.134 38.977,36.89 39.572,36.623 C38.846,38.399 37.777,39.878 36.388,40.98 C33.642,43.002 30.402,44.388 26.885,44.918 C27.766,43.397 28.476,41.25 29.02,38.727" id="path-1"></path>
        <polygon id="path-3" points="0 0 189.4428 0 189.4428 14.078 0 14.078"></polygon>
    </defs>
    <g id="Logos/Horizontal/World-Bank-Group-(white)" stroke="none" stroke-width="1" fill="none" fill-rule="evenodd">
        <g id="Logos/SVG/WBG/Horizontal/Black">
            <g id="White-Gradient" transform="translate(0.000000, 0.359400)">
                <mask id="mask-2" fill="white">
                    <use xlink:href="#path-1"></use>
                </mask>
                <use id="Mask" fill="#FFFFFF" xlink:href="#path-1"></use>
            </g>
            <g id="Group-6" transform="translate(52.000000, 16.359400)">
                <mask id="mask-4" fill="white">
                    <use xlink:href="#path-3"></use>
                </mask>
                <g id="Clip-5"></g>
                <path d="M184.04,0.126725925 C187.54,0.126725925 189.47,1.81672593 189.47,4.89672593 C189.47,7.79672593 187.57,9.52672593 184.39,9.52672593 L182.16,9.52672593 L182.16,13.9667259 L179.21,13.9667259 L179.21,0.126725925 L184.04,0.126725925 Z M182.16,7.12672593 L183.93,7.12672593 C185.64,7.12672593 186.51,6.38672593 186.51,4.90672593 C186.51,3.42672593 185.56,2.57672593 183.84,2.57672593 L182.17,2.57672593 L182.16,7.12672593 Z M173.78,8.43672593 C173.78,10.4367259 173,11.4367259 171.4,11.4367259 C169.8,11.4367259 168.96,10.4367259 168.96,8.43672593 L168.96,0.136725925 L166.01,0.136725925 L166.01,8.23672593 C165.876295,9.86713306 166.406333,11.4824875 167.48,12.7167259 C168.546126,13.6881667 169.960437,14.1860621 171.4,14.0967259 C173.83,14.0967259 176.73,13.0967259 176.73,8.23672593 L176.73,0.136725925 L173.73,0.136725925 L173.78,8.43672593 Z M157.93,0.00672592549 C160.93,0.00672592549 164.11,1.85672593 164.11,7.06672593 C164.11,12.2767259 160.92,14.0667259 157.93,14.0667259 C154.94,14.0667259 151.72,12.2167259 151.72,7.06672593 C151.72,1.91672593 154.93,0.00672592549 157.93,0.00672592549 L157.93,0.00672592549 Z M157.93,11.5067259 C159.1,11.5067259 161.06,10.9267259 161.06,7.06672593 C161.06,3.20672593 159.06,2.62672593 157.93,2.62672593 C155.93,2.62672593 154.77,4.20672593 154.77,7.06672593 C154.77,9.92672593 155.93,11.5067259 157.93,11.5067259 L157.93,11.5067259 Z M148.68,9.77672593 C149.16,10.7767259 149.59,11.6167259 150.56,11.6167259 L151.26,11.6167259 L151.26,13.8967259 L151.16,13.8967259 C150.690139,13.9971745 150.210421,14.0441399 149.73,14.0367259 C147.4,14.0367259 146.68,12.4367259 146.05,11.0367259 C145.54,9.87672593 145.05,8.87672593 143.87,8.87672593 L142.57,8.87672593 L142.57,13.9667259 L139.57,13.9667259 L139.57,0.126725925 L144.48,0.126725925 C148.07,0.126725925 149.74,1.52672593 149.74,4.52672593 C149.778371,6.0360887 148.895786,7.41735408 147.51,8.01672593 C147.978696,8.53696133 148.357235,9.13180743 148.63,9.77672593 L148.68,9.77672593 Z M142.52,6.59672593 L144.17,6.59672593 C145.81,6.59672593 146.83,5.83672593 146.83,4.59672593 C146.83,3.35672593 145.94,2.59672593 144.38,2.59672593 L142.52,2.59672593 L142.52,6.59672593 Z M131.72,8.90672593 L134.77,8.90672593 L134.77,9.06672593 C134.838627,9.72911489 134.602136,10.3867429 134.127373,10.8537222 C133.652611,11.3207015 132.991164,11.5462914 132.33,11.4667259 C130.33,11.4667259 129.13,9.81672593 129.13,7.06672593 C129.13,4.31672593 130.27,2.62672593 132.27,2.62672593 C132.929423,2.62663875 133.561272,2.89130022 134.023779,3.36132741 C134.486286,3.83135461 134.740722,4.46739058 134.73,5.12672593 L134.73,5.28672593 L137.48,4.85672593 L137.48,4.73672593 C137.334665,1.98165533 134.985256,-0.135049843 132.23,0.00672592549 C128.32,0.00672592549 126.08,2.57672593 126.08,7.06672593 C126.08,11.5567259 128.39,14.0667259 132.27,14.0667259 C136.15,14.0667259 137.54,11.3467259 137.54,9.06672593 L137.54,6.63672593 L131.72,6.63672593 L131.72,8.90672593 Z M122.89,0.126725925 L119.39,0.126725925 L114.93,6.36672593 L114.93,0.126725925 L111.93,0.126725925 L111.93,13.9667259 L114.93,13.9667259 L114.93,7.59672593 L119.63,13.9667259 L123.18,13.9667259 L117.82,6.96672593 L122.89,0.126725925 Z M106.21,8.67672593 L101.37,0.126725925 L98.37,0.126725925 L98.37,13.9667259 L101.37,13.9667259 L101.37,5.70672593 L106.2,13.9667259 L109.2,13.9667259 L109.2,0.126725925 L106.25,0.126725925 L106.21,8.67672593 Z M92.63,0.216725925 L97.68,13.9667259 L94.62,13.9667259 L93.43,10.5767259 L88.82,10.5767259 L87.68,13.9667259 L84.59,13.9667259 L89.67,0.126725925 L92.6,0.126725925 L92.63,0.216725925 Z M91.13,3.89672593 L89.63,8.26672593 L92.63,8.26672593 L91.13,3.89672593 Z M81.85,6.66672593 C83.3508575,7.08381545 84.366177,8.4803977 84.3,10.0367259 C84.3,12.5367259 82.53,13.9667259 79.44,13.9667259 L73.6,13.9667259 L73.6,0.126725925 L78.93,0.126725925 C81.93,0.126725925 83.44,1.37672593 83.44,3.84672593 C83.44,5.75672593 82.57,6.43672593 81.9,6.66672593 L81.85,6.66672593 Z M78.61,5.78672593 C79.84,5.78672593 80.42,5.26672593 80.42,4.15672593 C80.42,3.04672593 79.69,2.56672593 78.25,2.56672593 L76.6,2.56672593 L76.6,5.78672593 L78.61,5.78672593 Z M76.61,11.5267259 L78.92,11.5267259 C80.42,11.5267259 81.12,10.9567259 81.12,9.73672593 C81.12,8.25672593 79.89,7.93672593 78.86,7.93672593 L76.61,7.93672593 L76.61,11.5267259 Z M61.51,0.126725925 C65.82,0.126725925 68.39,2.79672593 68.39,7.27672593 C68.39,11.5267259 66.09,13.9667259 62.09,13.9667259 L57.4,13.9667259 L57.4,0.126725925 L61.51,0.126725925 Z M60.35,11.5267259 L62.07,11.5267259 C64.19,11.5267259 65.46,9.91672593 65.46,7.23672593 C65.46,4.13672593 64.12,2.56672593 61.46,2.56672593 L60.34,2.56672593 L60.35,11.5267259 Z M49.93,0.126725925 L46.93,0.126725925 L46.93,13.9667259 L55.93,13.9667259 L55.93,11.5267259 L49.93,11.5267259 L49.93,0.126725925 Z M43.01,9.77672593 C43.5,10.7767259 43.92,11.6167259 44.89,11.6167259 L45.59,11.6167259 L45.59,13.8967259 L45.49,13.8967259 C45.0201388,13.9971745 44.5404212,14.0441399 44.06,14.0367259 C41.73,14.0367259 41.06,12.4367259 40.38,11.0367259 C39.87,9.87672593 39.38,8.87672593 38.2,8.87672593 L36.93,8.87672593 L36.93,13.9667259 L33.93,13.9667259 L33.93,0.126725925 L38.93,0.126725925 C42.52,0.126725925 44.19,1.52672593 44.19,4.52672593 C44.2233487,6.04335873 43.3275507,7.42669276 41.93,8.01672593 C42.3986961,8.53696133 42.7772345,9.13180743 43.05,9.77672593 L43.01,9.77672593 Z M36.93,6.59672593 L38.57,6.59672593 C40.21,6.59672593 41.23,5.83672593 41.23,4.59672593 C41.23,3.35672593 40.34,2.59672593 38.79,2.59672593 L36.93,2.59672593 L36.93,6.59672593 Z M26.13,0.00672592549 C29.13,0.00672592549 32.31,1.85672593 32.31,7.06672593 C32.31,12.2767259 29.12,14.0667259 26.13,14.0667259 C23.14,14.0667259 19.93,12.2367259 19.93,7.06672593 C19.93,1.89672593 23.14,0.00672592549 26.14,0.00672592549 L26.13,0.00672592549 Z M26.14,11.5067259 C27.31,11.5067259 29.28,10.9267259 29.28,7.06672593 C29.28,3.20672593 27.28,2.62672593 26.14,2.62672593 C24.14,2.62672593 22.98,4.20672593 22.98,7.06672593 C22.98,9.92672593 24.1,11.5067259 26.14,11.5067259 L26.14,11.5067259 Z M16.14,0.126725925 L19.48,0.126725925 L15.48,13.9667259 L12.2,13.9667259 L9.79,5.28672593 L7.33,13.9667259 L4,13.9667259 L0,0.126725925 L3.43,0.126725925 L5.75,10.2267259 L8.55,0.126725925 L11.02,0.126725925 L13.72,10.2267259 L16.14,0.126725925 Z" id="Grays" fill="#FFFFFF" fill-rule="nonzero" mask="url(#mask-4)"></path>
            </g>
        </g>
    </g>
</svg>